<svg xmlns="http://www.w3.org/2000/svg" xmlns:xlink="http://www.w3.org/1999/xlink" width="500" zoomAndPan="magnify" viewBox="0 0 375 374.999991" height="500" preserveAspectRatio="xMidYMid meet" version="1.0"><defs><clipPath id="94e57bfa44"><path d="M 160 50 L 300 50 L 300 164 L 160 164 Z M 160 50 " clip-rule="nonzero"/></clipPath><clipPath id="074faa5604"><path d="M 135.457031 -45.128906 L 419.816406 135.261719 L 239.425781 419.621094 L -44.933594 239.230469 Z M 135.457031 -45.128906 " clip-rule="nonzero"/></clipPath><clipPath id="45ef82ed5f"><path d="M 135.457031 -45.128906 L 419.816406 135.261719 L 239.425781 419.621094 L -44.933594 239.230469 Z M 135.457031 -45.128906 " clip-rule="nonzero"/></clipPath><clipPath id="c049b41a0d"><path d="M 211 159 L 325 159 L 325 300 L 211 300 Z M 211 159 " clip-rule="nonzero"/></clipPath><clipPath id="5898185d48"><path d="M 135.457031 -45.128906 L 419.816406 135.261719 L 239.425781 419.621094 L -44.933594 239.230469 Z M 135.457031 -45.128906 " clip-rule="nonzero"/></clipPath><clipPath id="a5516a2f4d"><path d="M 135.457031 -45.128906 L 419.816406 135.261719 L 239.425781 419.621094 L -44.933594 239.230469 Z M 135.457031 -45.128906 " clip-rule="nonzero"/></clipPath><clipPath id="ac6eddc637"><path d="M 75 211 L 215 211 L 215 324 L 75 324 Z M 75 211 " clip-rule="nonzero"/></clipPath><clipPath id="fe6c26225e"><path d="M 135.457031 -45.128906 L 419.816406 135.261719 L 239.425781 419.621094 L -44.933594 239.230469 Z M 135.457031 -45.128906 " clip-rule="nonzero"/></clipPath><clipPath id="a91febb47e"><path d="M 135.457031 -45.128906 L 419.816406 135.261719 L 239.425781 419.621094 L -44.933594 239.230469 Z M 135.457031 -45.128906 " clip-rule="nonzero"/></clipPath><clipPath id="4f4c2e951f"><path d="M 50 75 L 164 75 L 164 215 L 50 215 Z M 50 75 " clip-rule="nonzero"/></clipPath><clipPath id="6c6b83bd02"><path d="M 135.457031 -45.128906 L 419.816406 135.261719 L 239.425781 419.621094 L -44.933594 239.230469 Z M 135.457031 -45.128906 " clip-rule="nonzero"/></clipPath><clipPath id="ae3f5fa8c0"><path d="M 135.457031 -45.128906 L 419.816406 135.261719 L 239.425781 419.621094 L -44.933594 239.230469 Z M 135.457031 -45.128906 " clip-rule="nonzero"/></clipPath><clipPath id="00e693ca63"><path d="M 186 126.558594 L 225 126.558594 L 225 211 L 186 211 Z M 186 126.558594 " clip-rule="nonzero"/></clipPath><clipPath id="d076f08fc9"><path d="M 150.046875 126.558594 L 188 126.558594 L 188 211 L 150.046875 211 Z M 150.046875 126.558594 " clip-rule="nonzero"/></clipPath><clipPath id="2a236f8cfa"><path d="M 187 195 L 225.046875 195 L 225.046875 248.808594 L 187 248.808594 Z M 187 195 " clip-rule="nonzero"/></clipPath><clipPath id="7e9cc25935"><path d="M 150.046875 195 L 188 195 L 188 248.808594 L 150.046875 248.808594 Z M 150.046875 195 " clip-rule="nonzero"/></clipPath><clipPath id="e0a4a5b4e7"><path d="M 150.046875 171 L 188 171 L 188 211 L 150.046875 211 Z M 150.046875 171 " clip-rule="nonzero"/></clipPath></defs><g clip-path="url(#94e57bfa44)"><g clip-path="url(#074faa5604)"><g clip-path="url(#45ef82ed5f)"><path fill="#896227" d="M 162.246094 88.820312 C 157.195312 96.964844 161.148438 108.554688 171.070312 114.703125 C 180.992188 120.855469 193.128906 119.238281 198.179688 111.089844 C 203.226562 102.945312 199.277344 91.355469 189.351562 85.207031 C 179.429688 79.054688 167.296875 80.671875 162.246094 88.820312 Z M 163.039062 50.558594 C 163.039062 50.558594 292.222656 54.3125 299.363281 163.058594 C 283.824219 133.648438 249.789062 129.230469 203.160156 141.226562 C 203.160156 141.226562 240.113281 94.253906 163.039062 50.558594 " fill-opacity="1" fill-rule="nonzero"/></g></g></g><g clip-path="url(#c049b41a0d)"><g clip-path="url(#5898185d48)"><g clip-path="url(#a5516a2f4d)"><path fill="#472d07" d="M 285.847656 162.039062 C 277.699219 156.988281 266.113281 160.941406 259.960938 170.863281 C 253.8125 180.785156 255.429688 192.921875 263.578125 197.972656 C 271.722656 203.023438 283.308594 199.070312 289.460938 189.148438 C 295.609375 179.226562 293.992188 167.085938 285.847656 162.039062 Z M 324.105469 162.832031 C 324.105469 162.832031 320.355469 292.015625 211.605469 299.15625 C 241.019531 283.617188 245.433594 249.582031 233.441406 202.953125 C 233.441406 202.953125 280.414062 239.90625 324.105469 162.832031 " fill-opacity="1" fill-rule="nonzero"/></g></g></g><g clip-path="url(#ac6eddc637)"><g clip-path="url(#fe6c26225e)"><g clip-path="url(#a91febb47e)"><path fill="#50350c" d="M 212.628906 285.640625 C 217.675781 277.492188 213.726562 265.90625 203.804688 259.753906 C 193.878906 253.605469 181.742188 255.222656 176.695312 263.371094 C 171.644531 271.515625 175.597656 283.101562 185.519531 289.253906 C 195.441406 295.402344 207.582031 293.785156 212.628906 285.640625 Z M 211.835938 323.898438 C 211.835938 323.898438 82.652344 320.144531 75.511719 211.398438 C 91.046875 240.808594 125.082031 245.226562 171.714844 233.234375 C 171.714844 233.234375 134.757812 280.207031 211.835938 323.898438 " fill-opacity="1" fill-rule="nonzero"/></g></g></g><g clip-path="url(#4f4c2e951f)"><g clip-path="url(#6c6b83bd02)"><g clip-path="url(#ae3f5fa8c0)"><path fill="#70490f" d="M 89.027344 212.417969 C 97.171875 217.46875 108.761719 213.515625 114.914062 203.59375 C 121.0625 193.671875 119.445312 181.535156 111.296875 176.488281 C 103.152344 171.4375 91.5625 175.386719 85.414062 185.3125 C 79.261719 195.234375 80.878906 207.371094 89.027344 212.417969 Z M 50.769531 211.628906 C 50.769531 211.628906 54.519531 82.441406 163.269531 75.304688 C 133.859375 90.839844 129.441406 124.871094 141.433594 171.507812 C 141.433594 171.507812 94.460938 134.550781 50.769531 211.628906 " fill-opacity="1" fill-rule="nonzero"/></g></g></g><g clip-path="url(#00e693ca63)"><path fill="#472d07" d="M 187.535156 126.558594 L 186.71875 129.34375 L 186.71875 210.179688 L 187.535156 210.996094 L 224.996094 188.816406 Z M 187.535156 126.558594 " fill-opacity="1" fill-rule="nonzero"/></g><g clip-path="url(#d076f08fc9)"><path fill="#896227" d="M 187.535156 126.558594 L 150.074219 188.816406 L 187.535156 210.996094 Z M 187.535156 126.558594 " fill-opacity="1" fill-rule="nonzero"/></g><g clip-path="url(#2a236f8cfa)"><path fill="#70490f" d="M 187.535156 218.101562 L 187.078125 218.664062 L 187.078125 247.460938 L 187.535156 248.808594 L 225.019531 195.933594 Z M 187.535156 218.101562 " fill-opacity="1" fill-rule="nonzero"/></g><g clip-path="url(#7e9cc25935)"><path fill="#896227" d="M 187.535156 248.808594 L 187.535156 218.101562 L 150.074219 195.933594 Z M 187.535156 248.808594 " fill-opacity="1" fill-rule="nonzero"/></g><path fill="#231602" d="M 187.535156 210.996094 L 224.996094 188.816406 L 187.535156 171.761719 Z M 187.535156 210.996094 " fill-opacity="1" fill-rule="nonzero"/><g clip-path="url(#e0a4a5b4e7)"><path fill="#50350c" d="M 150.078125 188.816406 L 187.535156 210.996094 L 187.535156 171.761719 Z M 150.078125 188.816406 " fill-opacity="1" fill-rule="nonzero"/></g></svg>